# xmcd
#
# Track frame offsets: 
#        150
#        28330
#        52006
#        66719
#        87925
#        114731
#        126206
#        143006
#        159372
#        180672
#        193947
#        209247
#        224397
#        238608
#        261408
#
# Disc length: 3797 seconds
#
# Revision: 0
# Processed by: cddbd v1.5.2PL0 Copyright (c) Steve Scherf et al.
# Submitted via: ExactAudioCopyFreeDBPlugin 1.0
#
DISCID=f60ed30f
DTITLE=Paddy Reilly  - Essential Paddy Reilly Collection
DYEAR=2009
DGENRE=Folk
TTITLE0=The Town I Loved So Well
TTITLE1=The Manchester Rambler
TTITLE2=Spancil Hill
TTITLE3=The Dublin Minstrel
TTITLE4=There Were Roses
TTITLE5=The Galway Races
TTITLE6=The Travelling People
TTITLE7=The Galtee Mountain Boy
TTITLE8=The Rare Old Times
TTITLE9=The Lark in the Morning
TTITLE10=The Bunch of Thyme
TTITLE11=The Shoals of Herring
TTITLE12=Scorn Not His Simplicity
TTITLE13=Deportees
TTITLE14=Working Man
EXTD=
EXTT0=
EXTT1=
EXTT2=
EXTT3=
EXTT4=
EXTT5=
EXTT6=
EXTT7=
EXTT8=
EXTT9=
EXTT10=
EXTT11=
EXTT12=
EXTT13=
EXTT14=
PLAYORDER=
